{
	"asset":{
		"generator":"Khronos glTF Blender I/O v4.4.56",
		"version":"2.0"
	},
	"scene":0,
	"scenes":[
		{
			"name":"Scene",
			"nodes":[
				1
			]
		}
	],
	"nodes":[
		{
			"mesh":0,
			"name":"estrado_collider",
			"scale":[
				0.5500625967979431,
				0.8140892386436462,
				0.5500625967979431
			],
			"translation":[
				0,
				0.9203052520751953,
				0.511350154876709
			]
		},
		{
			"children":[
				0
			],
			"mesh":1,
			"name":"estrado",
			"translation":[
				0,
				0.3532153367996216,
				0
			]
		}
	],
	"materials":[
		{
			"doubleSided":true,
			"name":"stage",
			"normalTexture":{
				"index":0
			},
			"pbrMetallicRoughness":{
				"baseColorTexture":{
					"index":1
				},
				"metallicRoughnessTexture":{
					"index":2
				}
			}
		}
	],
	"meshes":[
		{
			"name":"Cube",
			"primitives":[
				{
					"attributes":{
						"POSITION":0,
						"NORMAL":1,
						"TEXCOORD_0":2
					},
					"indices":3
				}
			]
		},
		{
			"name":"Cylinder.025",
			"primitives":[
				{
					"attributes":{
						"POSITION":4,
						"NORMAL":5,
						"TEXCOORD_0":6
					},
					"indices":7,
					"material":0
				}
			]
		}
	],
	"textures":[
		{
			"sampler":0,
			"source":0
		},
		{
			"sampler":0,
			"source":1
		},
		{
			"sampler":0,
			"source":2
		}
	],
	"images":[
		{
			"mimeType":"image/png",
			"name":"stage_Normal",
			"uri":"Textures/stage_Normal.png"
		},
		{
			"mimeType":"image/png",
			"name":"stage_AlbedoTransparency",
			"uri":"Textures/stage_AlbedoTransparency.png"
		},
		{
			"mimeType":"image/png",
			"name":"stage_MetallicRoughness",
			"uri":"Textures/stage_MetallicRoughness.png"
		}
	],
	"accessors":[
		{
			"bufferView":0,
			"componentType":5126,
			"count":24,
			"max":[
				1,
				1,
				1
			],
			"min":[
				-1,
				-1,
				-1
			],
			"type":"VEC3"
		},
		{
			"bufferView":1,
			"componentType":5126,
			"count":24,
			"type":"VEC3"
		},
		{
			"bufferView":2,
			"componentType":5126,
			"count":24,
			"type":"VEC2"
		},
		{
			"bufferView":3,
			"componentType":5123,
			"count":36,
			"type":"SCALAR"
		},
		{
			"bufferView":4,
			"componentType":5126,
			"count":619,
			"max":[
				0.5499659180641174,
				1.7280791997909546,
				0.9408676624298096
			],
			"min":[
				-0.549966037273407,
				0.32123491168022156,
				-0.06492191553115845
			],
			"type":"VEC3"
		},
		{
			"bufferView":5,
			"componentType":5126,
			"count":619,
			"type":"VEC3"
		},
		{
			"bufferView":6,
			"componentType":5126,
			"count":619,
			"type":"VEC2"
		},
		{
			"bufferView":7,
			"componentType":5123,
			"count":1593,
			"type":"SCALAR"
		}
	],
	"bufferViews":[
		{
			"buffer":0,
			"byteLength":288,
			"byteOffset":0,
			"target":34962
		},
		{
			"buffer":0,
			"byteLength":288,
			"byteOffset":288,
			"target":34962
		},
		{
			"buffer":0,
			"byteLength":192,
			"byteOffset":576,
			"target":34962
		},
		{
			"buffer":0,
			"byteLength":72,
			"byteOffset":768,
			"target":34963
		},
		{
			"buffer":0,
			"byteLength":7428,
			"byteOffset":840,
			"target":34962
		},
		{
			"buffer":0,
			"byteLength":7428,
			"byteOffset":8268,
			"target":34962
		},
		{
			"buffer":0,
			"byteLength":4952,
			"byteOffset":15696,
			"target":34962
		},
		{
			"buffer":0,
			"byteLength":3186,
			"byteOffset":20648,
			"target":34963
		}
	],
	"samplers":[
		{
			"magFilter":9729,
			"minFilter":9987
		}
	],
	"buffers":[
		{
			"byteLength":23836,
			"uri":"estrado.bin"
		}
	]
}
