{
	"asset":{
		"generator":"Khronos glTF Blender I/O v4.4.56",
		"version":"2.0"
	},
	"extensionsUsed":[
		"KHR_materials_specular"
	],
	"scene":0,
	"scenes":[
		{
			"name":"Scene",
			"nodes":[
				1
			]
		}
	],
	"nodes":[
		{
			"mesh":0,
			"name":"stage_collider"
		},
		{
			"children":[
				0
			],
			"mesh":1,
			"name":"stage"
		}
	],
	"materials":[
		{
			"doubleSided":true,
			"name":"stage",
			"normalTexture":{
				"index":0
			},
			"pbrMetallicRoughness":{
				"baseColorTexture":{
					"index":1
				},
				"metallicRoughnessTexture":{
					"index":2
				}
			}
		},
		{
			"alphaMode":"BLEND",
			"doubleSided":true,
			"extensions":{
				"KHR_materials_specular":{
					"specularFactor":0
				}
			},
			"name":"stage_transparents",
			"normalTexture":{
				"index":3
			},
			"pbrMetallicRoughness":{
				"baseColorTexture":{
					"index":4
				},
				"metallicFactor":0
			}
		}
	],
	"meshes":[
		{
			"name":"Cylinder",
			"primitives":[
				{
					"attributes":{
						"POSITION":0,
						"NORMAL":1,
						"TEXCOORD_0":2,
						"COLOR_0":3
					},
					"indices":4
				}
			]
		},
		{
			"name":"Cylinder.001",
			"primitives":[
				{
					"attributes":{
						"POSITION":5,
						"NORMAL":6,
						"TEXCOORD_0":7,
						"COLOR_0":8,
						"COLOR_1":9
					},
					"indices":10,
					"material":0
				},
				{
					"attributes":{
						"POSITION":11,
						"NORMAL":12,
						"TEXCOORD_0":13,
						"COLOR_0":14,
						"COLOR_1":15
					},
					"indices":16,
					"material":1
				}
			]
		}
	],
	"textures":[
		{
			"sampler":0,
			"source":0
		},
		{
			"sampler":0,
			"source":1
		},
		{
			"sampler":0,
			"source":2
		},
		{
			"sampler":0,
			"source":0
		},
		{
			"sampler":0,
			"source":1
		}
	],
	"images":[
		{
			"mimeType":"image/png",
			"name":"stage_Normal",
			"uri":"Textures/stage_Normal.png"
		},
		{
			"mimeType":"image/png",
			"name":"stage_AlbedoTransparency",
			"uri":"Textures/stage_AlbedoTransparency.png"
		},
		{
			"mimeType":"image/png",
			"name":"stage_MetallicRoughness",
			"uri":"Textures/stage_MetallicRoughness.png"
		}
	],
	"accessors":[
		{
			"bufferView":0,
			"componentType":5126,
			"count":586,
			"max":[
				7.550122261047363,
				2.8145198822021484,
				7.62589168548584
			],
			"min":[
				-7.550122261047363,
				0,
				-7.550122261047363
			],
			"type":"VEC3"
		},
		{
			"bufferView":1,
			"componentType":5126,
			"count":586,
			"type":"VEC3"
		},
		{
			"bufferView":2,
			"componentType":5126,
			"count":586,
			"type":"VEC2"
		},
		{
			"bufferView":3,
			"componentType":5123,
			"count":586,
			"normalized":true,
			"type":"VEC4"
		},
		{
			"bufferView":4,
			"componentType":5123,
			"count":1044,
			"type":"SCALAR"
		},
		{
			"bufferView":5,
			"componentType":5126,
			"count":2318,
			"max":[
				7.478821754455566,
				5.312717437744141,
				7.62589168548584
			],
			"min":[
				-7.478821754455566,
				-2.9802322387695312e-08,
				-7.540063858032227
			],
			"type":"VEC3"
		},
		{
			"bufferView":6,
			"componentType":5126,
			"count":2318,
			"type":"VEC3"
		},
		{
			"bufferView":7,
			"componentType":5126,
			"count":2318,
			"type":"VEC2"
		},
		{
			"bufferView":8,
			"componentType":5121,
			"count":2318,
			"normalized":true,
			"type":"VEC4"
		},
		{
			"bufferView":9,
			"componentType":5123,
			"count":2318,
			"normalized":true,
			"type":"VEC4"
		},
		{
			"bufferView":10,
			"componentType":5123,
			"count":6681,
			"type":"SCALAR"
		},
		{
			"bufferView":11,
			"componentType":5126,
			"count":396,
			"max":[
				5.317928791046143,
				0.7101842164993286,
				6.031671524047852
			],
			"min":[
				-5.317928791046143,
				0.34039852023124695,
				-1.4134244918823242
			],
			"type":"VEC3"
		},
		{
			"bufferView":12,
			"componentType":5126,
			"count":396,
			"type":"VEC3"
		},
		{
			"bufferView":13,
			"componentType":5126,
			"count":396,
			"type":"VEC2"
		},
		{
			"bufferView":14,
			"componentType":5121,
			"count":396,
			"normalized":true,
			"type":"VEC4"
		},
		{
			"bufferView":15,
			"componentType":5123,
			"count":396,
			"normalized":true,
			"type":"VEC4"
		},
		{
			"bufferView":16,
			"componentType":5123,
			"count":594,
			"type":"SCALAR"
		}
	],
	"bufferViews":[
		{
			"buffer":0,
			"byteLength":7032,
			"byteOffset":0,
			"target":34962
		},
		{
			"buffer":0,
			"byteLength":7032,
			"byteOffset":7032,
			"target":34962
		},
		{
			"buffer":0,
			"byteLength":4688,
			"byteOffset":14064,
			"target":34962
		},
		{
			"buffer":0,
			"byteLength":4688,
			"byteOffset":18752,
			"target":34962
		},
		{
			"buffer":0,
			"byteLength":2088,
			"byteOffset":23440,
			"target":34963
		},
		{
			"buffer":0,
			"byteLength":27816,
			"byteOffset":25528,
			"target":34962
		},
		{
			"buffer":0,
			"byteLength":27816,
			"byteOffset":53344,
			"target":34962
		},
		{
			"buffer":0,
			"byteLength":18544,
			"byteOffset":81160,
			"target":34962
		},
		{
			"buffer":0,
			"byteLength":9272,
			"byteOffset":99704,
			"target":34962
		},
		{
			"buffer":0,
			"byteLength":18544,
			"byteOffset":108976,
			"target":34962
		},
		{
			"buffer":0,
			"byteLength":13362,
			"byteOffset":127520,
			"target":34963
		},
		{
			"buffer":0,
			"byteLength":4752,
			"byteOffset":140884,
			"target":34962
		},
		{
			"buffer":0,
			"byteLength":4752,
			"byteOffset":145636,
			"target":34962
		},
		{
			"buffer":0,
			"byteLength":3168,
			"byteOffset":150388,
			"target":34962
		},
		{
			"buffer":0,
			"byteLength":1584,
			"byteOffset":153556,
			"target":34962
		},
		{
			"buffer":0,
			"byteLength":3168,
			"byteOffset":155140,
			"target":34962
		},
		{
			"buffer":0,
			"byteLength":1188,
			"byteOffset":158308,
			"target":34963
		}
	],
	"samplers":[
		{
			"magFilter":9729,
			"minFilter":9987
		}
	],
	"buffers":[
		{
			"byteLength":159496,
			"uri":"stage.bin"
		}
	]
}
